<?xml version="1.0" encoding="UTF-8"?>
<svg id="a" data-name="Layer 1" xmlns="http://www.w3.org/2000/svg" xmlns:xlink="http://www.w3.org/1999/xlink" viewBox="0 0 200 200">
  <defs>
    <style>
      .k {
        fill: none;
      }

      .k, .l {
        stroke-width: 0px;
      }

      .m {
        clip-path: url(#c);
      }

      .l {
        fill: #303232;
      }
    </style>
    <clipPath id="c">
      <rect class="k" x="1.84" y="11" width="196.32" height="177.63"/>
    </clipPath>
  </defs>
  <g id="b" data-name="Group 76">
    <g class="m">
      <g id="d" data-name="Group 75">
        <path id="e" data-name="Path 79" class="l" d="M190.97,100.56c-.34,15.47-4.87,30.56-13.12,43.66-1.73,3.25-5.77,4.48-9.01,2.74s-4.48-5.77-2.74-9.01c.12-.23.26-.45.4-.66,8.65-13.67,12.44-29.85,10.77-45.94-1.65-23.79-15.22-45.13-36.07-56.71-24.79-15.28-56.35-14.08-79.9,3.04-2.22,1.9-5.35,2.29-7.96.99-3.22-1.75-4.41-5.77-2.67-8.99.53-.98,1.3-1.8,2.23-2.41,7.57-5.51,16.02-9.72,24.99-12.43,45.73-14.15,94.32,11.18,108.9,56.78,2.96,9.35,4.36,19.13,4.16,28.94"/>
        <path id="f" data-name="Path 80" class="l" d="M103.8,125.5c6.52,0,13.04-.12,19.57,0,15-.07,27.84,10.74,30.33,25.53,1.02,7.14,1.09,14.38.2,21.53-1.49,8.99-9.12,15.67-18.23,15.97-4.36.16-8.71.1-13.11.06-3.67.03-6.66-2.92-6.69-6.58-.03-3.67,2.92-6.66,6.58-6.69,3.53-.1,7.08,0,10.61,0,5.76,0,8.12-2.33,8.04-8.04.14-4.5,0-9.01-.42-13.49-1.2-8.4-8.34-14.67-16.82-14.78-13.41-.17-26.79-.17-40.17,0-9.5.15-17.18,7.76-17.43,17.25-.17,4.16-.11,8.33,0,12.49-.1,3.53,2.68,6.47,6.21,6.58.13,0,.26,0,.39,0,4.02.09,52.03,0,56.05.06,3.27-.08,6.11,2.23,6.7,5.45.59,3.13-1.15,6.24-4.13,7.37-.91.31-1.88.47-2.84.46-3.81.05-51.61.05-55.43,0-10.21.38-18.94-7.26-19.92-17.43-.72-6.89-.54-13.85.54-20.7,2.69-14.18,14.93-24.55,29.36-24.88,6.86-.21,13.73-.03,20.61-.03h0"/>
        <path id="g" data-name="Path 81" class="l" d="M103.62,50.96c17.77-.13,32.28,14.17,32.41,31.94.13,17.77-14.17,32.28-31.94,32.41-17.77.13-32.28-14.17-32.41-31.94,0-.08,0-.16,0-.23,0-17.68,14.26-32.05,31.94-32.18M103.62,64.3c-10.39-.06-18.86,8.32-18.92,18.71-.06,10.39,8.32,18.86,18.71,18.92,10.39.06,18.86-8.32,18.92-18.71,0-.04,0-.07,0-.11.09-10.3-8.2-18.72-18.5-18.81-.07,0-.14,0-.22,0"/>
        <path id="h" data-name="Path 82" class="l" d="M15.97,98.19c.36-10.45,2.38-20.77,5.99-30.59,1.03-3.01,4.05-4.87,7.2-4.42,3.01.37,5.36,2.78,5.66,5.8.03,1.52-.24,3.02-.79,4.44-7.31,20.36-5.29,42.9,5.52,61.63.44.79.92,1.55,1.34,2.33,2.08,3.06,1.29,7.23-1.78,9.31-.08.05-.16.1-.24.15-3.12,1.93-7.21.97-9.14-2.15-.07-.12-.14-.24-.21-.36-5.49-8.62-9.3-18.2-11.23-28.23-1.09-5.91-1.6-11.93-2.37-17.9"/>
        <path id="i" data-name="Path 83" class="l" d="M46.6,83.54c-1.58,0-3.08-.74-4.02-2.01l-12.78-17.39-21.11,8.35c-2.57,1.01-5.47-.24-6.48-2.81-1.01-2.57.24-5.47,2.81-6.48h0l24.69-9.76c2.11-.83,4.52-.14,5.86,1.69l15.06,20.46c1.64,2.22,1.16,5.35-1.06,6.98-.86.63-1.9.97-2.96.97"/>
        <path id="j" data-name="Path 84" class="l" d="M166.65,153.76c-2.15,0-4.05-1.37-4.73-3.41l-8.1-24.08c-.88-2.62.53-5.45,3.14-6.33s5.45.53,6.33,3.14l6.87,20.43,22.66-1.51c2.75-.19,5.13,1.9,5.32,4.65.19,2.75-1.9,5.13-4.65,5.32l-26.5,1.77h-.34"/>
      </g>
    </g>
  </g>
</svg>