<?xml version="1.0" encoding="UTF-8"?>
<svg id="a" data-name="Layer 1" xmlns="http://www.w3.org/2000/svg" xmlns:xlink="http://www.w3.org/1999/xlink" viewBox="0 0 200 200">
  <defs>
    <style>
      .i {
        fill: none;
      }

      .i, .j {
        stroke-width: 0px;
      }

      .k {
        clip-path: url(#c);
      }

      .j {
        fill: #303232;
      }
    </style>
    <clipPath id="c">
      <rect class="i" x="9.56" y="5.17" width="180.88" height="188.63"/>
    </clipPath>
  </defs>
  <g id="b" data-name="Group 78">
    <g class="k">
      <g id="d" data-name="Group 77">
        <path id="e" data-name="Path 85" class="j" d="M98.16,193.8c-4.73-.95-9-3.44-12.15-7.1-2.69-2.78-5.59-5.35-8.31-8.09-1.63-1.73-4.04-2.48-6.36-1.99-4.66.75-9.33,1.42-14.03,1.99-8.98,1.7-17.63-4.21-19.33-13.19-.11-.56-.18-1.12-.23-1.68-.73-4.48-1.56-8.94-2.3-13.42-.31-2.29-1.77-4.26-3.87-5.23-4.26-2.17-8.48-4.43-12.69-6.7-8.21-3.92-11.69-13.74-7.77-21.95.12-.25.24-.49.37-.74,2.06-4.32,4.14-8.6,6.31-12.89,1.15-2.07,1.15-4.59,0-6.67-2.14-4.22-4.2-8.47-6.26-12.73-4.4-8.01-1.47-18.07,6.54-22.47.32-.18.65-.34.99-.5,4.1-2.2,8.19-4.45,12.36-6.53,2.27-1.05,3.82-3.21,4.08-5.7.75-4.73,1.53-9.44,2.48-14.13,1.33-9.02,9.72-15.24,18.73-13.91.39.06.77.13,1.16.21,4.63.73,9.35,1.36,14.02,2.04,2.04.34,4.11-.36,5.53-1.86,3.51-3.44,7.04-6.85,10.59-10.25,6.24-6.6,16.64-6.89,23.24-.65.22.21.44.43.65.65,3.47,3.31,6.94,6.62,10.32,9.99,1.67,1.77,4.15,2.54,6.53,2.02,4.63-.76,9.33-1.47,14.03-1.99,8.95-1.64,17.54,4.28,19.18,13.23.08.42.14.83.18,1.25.81,4.47,1.61,8.94,2.3,13.42.25,2.49,1.8,4.65,4.06,5.71,4.11,2.06,8.13,4.28,12.19,6.45,8.34,3.75,12.05,13.54,8.31,21.88-.22.5-.47.98-.74,1.45-1.99,4.02-3.85,8.08-5.96,12.05-1.31,2.27-1.31,5.07,0,7.33,2.15,4.13,4.15,8.35,6.15,12.58,4.35,7.98,1.4,17.97-6.57,22.32-.26.14-.53.28-.8.41-4.15,2.26-8.3,4.51-12.52,6.62-2.32,1.08-3.9,3.31-4.14,5.86-.71,4.63-1.52,9.33-2.45,13.95-1.29,9.02-9.65,15.28-18.67,13.98-.4-.06-.79-.13-1.19-.21-4.67-.72-9.35-1.32-14.03-2.03-2.04-.36-4.12.32-5.55,1.81-2.85,2.8-5.81,5.48-8.6,8.34-3.14,3.63-7.4,6.12-12.11,7.06h-3.68ZM145.15,167.99c2.92.33,5.58-1.69,6.06-4.59.79-4.16,1.71-8.31,2.18-12.5.44-7.23,4.96-13.58,11.65-16.35,3.73-1.69,7.28-3.79,10.91-5.73,2.93-1.09,4.43-4.35,3.34-7.28-.15-.41-.35-.8-.59-1.16-2.11-4.36-4.24-8.71-6.39-13.05-2.61-4.92-2.61-10.81,0-15.73,2.13-4.28,4.22-8.6,6.3-12.89,1.8-2.59,1.16-6.16-1.43-7.96-.44-.3-.92-.55-1.42-.72-4.28-2.28-8.56-4.53-12.84-6.8-4.71-2.32-8.02-6.77-8.89-11.95-.93-5.13-1.8-10.27-2.77-15.39-.31-3.05-3.03-5.27-6.08-4.97-.23.02-.47.06-.69.11-4.68.66-9.36,1.32-14.02,2.05-5.84,1.15-11.87-.78-15.95-5.12-3.31-3.31-6.68-6.51-10.05-9.74-1.93-2.45-5.48-2.88-7.94-.95-.34.27-.64.57-.91.9-3.49,3.36-6.98,6.74-10.46,10.12-3.62,3.81-8.85,5.64-14.06,4.92-5.11-.66-10.21-1.4-15.3-2.14-3-.8-6.08.98-6.88,3.98-.08.31-.14.64-.17.96-.89,4.7-1.75,9.41-2.5,14.12-.69,5.72-4.23,10.7-9.4,13.24-4.24,2.2-8.46,4.46-12.68,6.71-2.96,1.05-4.52,4.3-3.47,7.26.16.46.38.89.65,1.3,2.08,4.3,4.16,8.6,6.31,12.89,2.66,4.96,2.66,10.92,0,15.88-2.12,4.22-4.16,8.48-6.22,12.72-1.85,2.58-1.25,6.18,1.34,8.02.48.34,1,.6,1.55.79,4.11,2.19,8.21,4.42,12.35,6.55,5.25,2.53,8.85,7.56,9.54,13.34.73,4.63,1.59,9.31,2.46,13.95.2,3.12,2.9,5.49,6.02,5.29.43-.03.85-.1,1.26-.23,4.67-.71,9.35-1.32,14.02-2.03,5.74-.97,11.58,1,15.57,5.24,3.31,3.31,6.68,6.51,10.05,9.74,1.94,2.42,5.48,2.81,7.9.87.31-.25.59-.53.84-.84,3.31-3.19,6.7-6.33,9.93-9.62,4.26-4.6,10.64-6.6,16.77-5.26,4.77.85,9.59,1.38,14.1,1.99"/>
        <path id="f" data-name="Path 86" class="j" d="M63.98,140.78c-2.98-.07-5.34-2.54-5.28-5.52.02-1.09.38-2.14,1.01-3.03.45-.58.95-1.13,1.49-1.63,23.3-23.31,46.6-46.61,69.91-69.92,1.14-1.47,2.86-2.38,4.72-2.5,2.09-.08,4.02,1.1,4.9,2.99,1,1.84.78,4.1-.56,5.71-.42.52-.88,1.02-1.37,1.48-23.3,23.31-46.6,46.61-69.91,69.92-1.17,1.53-2.98,2.45-4.91,2.5"/>
        <path id="g" data-name="Path 87" class="j" d="M78.15,90.38c-11.01-.05-19.89-9.01-19.84-20.02.05-11.01,9.01-19.89,20.02-19.84,11.01.05,19.89,9.01,19.84,20.02,0,.02,0,.04,0,.07-.04,10.97-8.97,19.82-19.93,19.78-.03,0-.05,0-.08,0M78.32,61.47c-4.97-.06-9.06,3.91-9.14,8.88-.05,5,3.96,9.09,8.96,9.13,5,.05,9.09-3.96,9.13-8.96.02-4.97-3.99-9.02-8.96-9.05"/>
        <path id="h" data-name="Path 88" class="j" d="M121.67,108.6c11.01-.04,19.96,8.85,20,19.86.04,11.01-8.85,19.96-19.86,20-10.96.04-19.89-8.77-20-19.73-.15-10.97,8.62-19.98,19.58-20.13.09,0,.18,0,.27,0M121.84,137.5c4.97-.03,8.99-4.07,8.98-9.04-.04-5-4.13-9.01-9.13-8.97-5,.04-9.01,4.13-8.97,9.13h0c.06,4.96,4.13,8.94,9.09,8.88,0,0,.01,0,.02,0"/>
      </g>
    </g>
  </g>
</svg>