<?xml version="1.0" encoding="UTF-8"?>
<svg id="a" data-name="Layer 1" xmlns="http://www.w3.org/2000/svg" xmlns:xlink="http://www.w3.org/1999/xlink" viewBox="0 0 200 200">
  <defs>
    <style>
      .j {
        fill: none;
      }

      .j, .k {
        stroke-width: 0px;
      }

      .l {
        clip-path: url(#c);
      }

      .k {
        fill: #303232;
      }
    </style>
    <clipPath id="c">
      <rect class="j" x="35.94" width="128.12" height="200"/>
    </clipPath>
  </defs>
  <g id="b" data-name="Group 4">
    <g class="l">
      <g id="d" data-name="Group 3">
        <path id="e" data-name="Path 4" class="k" d="M38.95,200.01c-2.04-.98-3.24-3.13-3-5.38.04-63.08.04-126.16,0-189.23v-.78c-.18-1.89.95-3.67,2.74-4.3,1.71-.64,3.64-.06,4.72,1.41l8.65,9.34c2.65-2.87,5.26-5.66,7.81-8.47,3.15-3.44,5.21-3.45,8.38,0l7.41,8.05c.15.12.3.23.46.33l8.05-8.71c2.76-2.97,4.94-3,7.72-.04,2.78,2.96,5.34,5.82,8.16,8.85,2.8-3.05,5.47-5.94,8.17-8.86s4.94-2.93,7.72.08c2.68,2.91,5.34,5.83,8.11,8.83l8.19-8.9c1.27-2.09,4.01-2.76,6.1-1.49.61.37,1.12.88,1.49,1.49l8.19,8.9c2.8-3.05,5.55-5.98,8.24-8.98,1.09-1.71,3.2-2.47,5.12-1.82,1.95.71,2.69,2.05,2.69,4.89,0,63.14.01,126.28.04,189.43.2,2.24-.99,4.38-3,5.39h-1.96c-1.11-.75-2.17-1.58-3.16-2.48-2.68-2.78-5.27-5.66-7.95-8.56-1.15,1.23-2.13,2.37-3.17,3.41-2.53,2.56-5.09,5.09-7.63,7.64h-2.37c-1.11-.97-2.3-1.87-3.32-2.93-2.51-2.63-4.94-5.34-7.5-8.13-2.61,2.83-5.08,5.59-7.66,8.25-1.09,1-2.23,1.94-3.43,2.81h-1.96c-1.13-.85-2.21-1.76-3.24-2.73-2.59-2.71-5.09-5.5-7.72-8.31-2.15,2.34-4.08,4.55-6.14,6.63-1.53,1.56-3.22,2.97-4.85,4.43h-1.96c-1.06-.72-2.07-1.51-3.02-2.37-2.7-2.81-5.3-5.7-8.03-8.66-1.4,1.52-2.63,2.97-3.95,4.28-2.27,2.29-4.61,4.52-6.92,6.79h-2.37l-10.85-10.98c-1.31,1.42-2.62,2.97-4.02,4.38-2.17,2.21-4.4,4.36-6.6,6.53h-2.35ZM155.46,184.76V15.14c-1.46,1.61-2.67,2.97-3.91,4.3-1.25,2-3.88,2.6-5.88,1.35-.56-.35-1.04-.83-1.38-1.4-1.69-1.78-3.34-3.65-5.02-5.47-1.08-1.19-2.17-2.33-3.32-3.56-2.74,2.97-5.3,5.75-7.84,8.54-2.97,3.26-5.15,3.31-8.11.11-2.65-2.85-5.28-5.71-8-8.66-2.88,3.13-5.6,6.1-8.35,9.05-1.32,2.01-4.01,2.57-6.02,1.26-.51-.34-.95-.78-1.28-1.3l-8.45-9.15c-.49.64-.85,1.19-1.28,1.66-2.37,2.6-4.75,5.2-7.12,7.76-1.36,1.91-4.01,2.36-5.92,1-.39-.28-.74-.63-1.01-1.02-.67-.71-1.32-1.44-1.98-2.16l-6.53-7.06c-2.89,3.15-5.6,6.14-8.34,9.09-1.22,2.01-3.84,2.64-5.85,1.42-.58-.35-1.06-.84-1.42-1.42-1.23-1.35-2.46-2.71-3.89-4.29v169.78c1.67-1.84,3.06-3.45,4.55-4.97,1.28-1.53,3.51-1.82,5.13-.67.63.46,1.21.99,1.72,1.58,2.69,2.9,5.34,5.82,8.12,8.83,2.7-2.92,5.26-5.69,7.81-8.46,3.17-3.44,5.22-3.45,8.37-.03,2.58,2.8,5.18,5.6,7.84,8.48,2.8-3.04,5.46-5.91,8.1-8.78,2.77-3.02,5.03-2.97,7.84.06,2.64,2.87,5.28,5.73,8.06,8.76.49-.55.86-.99,1.25-1.41,2.34-2.54,4.68-5.08,7.02-7.62,1.29-2.05,4-2.66,6.04-1.37.57.36,1.04.84,1.4,1.41,1.02,1.09,2.02,2.21,3.04,3.31,1.71,1.85,3.43,3.69,5.22,5.63,2.97-3.22,5.75-6.32,8.59-9.35,1.29-1.86,3.83-2.32,5.69-1.03.4.28.75.63,1.03,1.03,1.33,1.4,2.61,2.84,4.12,4.49"/>
        <path id="f" data-name="Path 5" class="k" d="M113.64,56.18c.22,2.35-1.45,4.45-3.79,4.75-2.28.23-4.32-1.44-4.55-3.72,0-.04,0-.08-.01-.12-.66-3.83-2.34-5.58-5.34-5.55-2.51,0-4.65,1.8-5.09,4.27-.54,2.62,1.03,5.21,3.6,5.94.75.2,1.53.31,2.31.33,7.48.41,13.21,6.8,12.8,14.28-.27,4.97-3.24,9.39-7.74,11.52-1.12.35-1.82,1.46-1.65,2.62.04,3.04-1.57,4.86-4.11,4.9-2.62.04-4.29-1.78-4.26-4.94.13-1.16-.58-2.25-1.7-2.59-4.43-2.03-7.39-6.32-7.72-11.18-.47-2.35,1.05-4.64,3.4-5.11.08-.02.16-.03.24-.04,2.34-.27,4.45,1.41,4.72,3.75.01.12.02.24.03.36.53,3.33,2.21,5.09,5.01,5.25,2.58.17,4.87-1.62,5.34-4.16.56-2.6-.94-5.2-3.48-6.01-.82-.22-1.66-.34-2.51-.36-6.12-.37-11.23-4.8-12.47-10.81-1.3-6.08,1.74-12.26,7.36-14.93,1.18-.35,1.93-1.5,1.78-2.72-.35-2.28,1.22-4.42,3.5-4.77.22-.03.44-.05.65-.05,2.55,0,4.21,1.78,4.16,4.84-.12,1.22.65,2.35,1.82,2.7,4.51,2.11,7.47,6.56,7.66,11.53"/>
        <path id="g" data-name="Path 6" class="k" d="M100.22,135.52h33.99c.65-.02,1.3,0,1.95.04,2.27.34,3.84,2.45,3.5,4.72-.27,1.81-1.69,3.24-3.5,3.5-.65.06-1.3.04-1.95.04h-68.41c-3.78,0-5.67-1.34-5.72-4.05s1.94-4.24,5.74-4.24h34.4"/>
        <path id="h" data-name="Path 7" class="k" d="M100.2,153.08h34.63c1.09-.03,2.18.2,3.17.67,1.58.82,2.35,2.64,1.85,4.35-.33,1.73-1.76,3.04-3.52,3.19-.65.06-1.3.08-1.95.05h-70.05c-2.29.05-4.19-1.77-4.24-4.07,0-.03,0-.06,0-.09,0-2.27,1.85-4.1,4.11-4.1.07,0,.13,0,.19,0,7.18-.04,14.35,0,21.53,0h14.28"/>
        <path id="i" data-name="Path 8" class="k" d="M99.95,126.69c-5.99,0-11.99.05-17.98,0-2.26.19-4.24-1.49-4.43-3.75-.07-.79.1-1.58.47-2.27.71-1.45,2.21-2.34,3.82-2.27h36.34c2.29-.18,4.29,1.53,4.47,3.82.18,2.29-1.53,4.29-3.82,4.47-.23.02-.47.02-.7,0-6.06.05-12.12,0-18.17,0"/>
      </g>
    </g>
  </g>
</svg>