<?xml version="1.0" encoding="UTF-8"?>
<svg id="a" data-name="Layer 1" xmlns="http://www.w3.org/2000/svg" viewBox="0 0 200 200">
  <defs>
    <style>
      .g {
        fill: #d82135;
        stroke-width: 0px;
      }
    </style>
  </defs>
  <g id="b" data-name="basura">
    <path id="c" data-name="Path 10" class="g" d="M34.2,116.08v-52.34c-.26-5.18,3.72-9.59,8.9-9.85,4.87-.25,9.11,3.27,9.78,8.1.12,1.09.08,2.21.08,3.3v100.28c-.2,2.82.74,5.6,2.61,7.72,1.89,2.01,4.56,3.12,7.33,3.04h74.42c5.27.23,9.73-3.86,9.96-9.13.02-.52,0-1.04-.06-1.56v-100.66c-.06-1.33.02-2.65.25-3.96,1.19-5.04,6.24-8.16,11.27-6.97,4.05.96,6.98,4.47,7.21,8.62v103.86c.29,13.23-8.7,24.87-21.58,27.92-2.29.53-4.64.79-7,.78-24.88,0-49.76,0-74.64,0-14.08.28-26.18-9.91-28.3-23.83-.27-1.9-.37-3.81-.31-5.73v-49.5"/>
    <path id="d" data-name="Path 11" class="g" d="M68.65,25.45c-3.47-1.59-5.82-4.92-6.14-8.73-.51-5.03,3.15-9.53,8.18-10.04.38-.04.77-.05,1.16-.04h54.55c6.22,0,9.9,2.29,11.11,6.98,1.2,4.69-.74,8.4-6.5,11.8h34.37c5.22-.22,9.62,3.84,9.84,9.06.21,4.96-3.47,9.24-8.4,9.79H34.96c-4.57.33-8.73-2.65-9.9-7.08-1.26-5.06,1.81-10.18,6.87-11.44.89-.22,1.8-.31,2.72-.27h33.99"/>
    <path id="e" data-name="Path 12" class="g" d="M71.84,110.37v-37.54c-.15-5.17,3.93-9.49,9.1-9.64,1.74-.05,3.45.38,4.96,1.25,3.22,1.85,5.09,5.38,4.82,9.08v73.55c.46,5.27-3.44,9.91-8.71,10.36-.07,0-.14.01-.2.02-5.19.28-9.62-3.7-9.89-8.89-.02-.29-.02-.57,0-.86v-37.33"/>
    <path id="f" data-name="Path 13" class="g" d="M128.42,110.37v37.54c.1,4.37-2.87,8.21-7.11,9.22-3.98,1.11-8.2-.62-10.25-4.21-.91-1.67-1.41-3.54-1.45-5.45-.09-24.81-.09-49.61,0-74.42-.16-5.21,3.94-9.56,9.15-9.72,5.21-.16,9.56,3.94,9.72,9.15,0,.25,0,.51,0,.76v37.09"/>
  </g>
</svg>