<?xml version="1.0" encoding="UTF-8"?>
<svg id="a" data-name="Layer 1" xmlns="http://www.w3.org/2000/svg" xmlns:xlink="http://www.w3.org/1999/xlink" viewBox="0 0 300 300">
  <defs>
    <style>
      .f {
        fill: none;
      }

      .f, .g {
        stroke-width: 0px;
      }

      .h {
        clip-path: url(#c);
      }

      .g {
        fill: #efefef;
      }
    </style>
    <clipPath id="c">
      <rect class="f" x="4.38" y="4.38" width="291.23" height="291.23"/>
    </clipPath>
  </defs>
  <g id="b" data-name="Group 84">
    <g class="h">
      <g id="d" data-name="Group 83">
        <path id="e" data-name="Path 90" class="g" d="M187.31,294.7c-1.56-.57-3.18-1.04-4.7-1.73-5.08-2.1-9.26-5.93-11.79-10.8-16.83-32.91-33.77-65.77-50.82-98.57-.83-1.53-2.08-2.79-3.61-3.62-32.72-16.96-65.48-33.85-98.3-50.67-5.83-3.01-10.17-8.27-12.01-14.56-.23-.69-.51-1.36-.77-2.04v-6.79c2.11-8.19,8.42-14.65,16.57-16.95L273.79,5.3h6.77c3.85.78,7.33,2.82,9.91,5.78,1.59,2.69,3,5.48,4.23,8.35v7.35c-.7,2.21-1.36,4.43-2.09,6.64-26.87,80.69-53.74,161.38-80.59,242.07-3.09,9.31-7.99,16.49-17.93,19.21h-6.78ZM272.43,39.8c-1.27,1.16-1.95,1.75-2.58,2.38-44.08,44.08-88.17,88.15-132.28,132.22-1.53,1.06-1.9,3.16-.84,4.69.02.03.04.05.05.08,15.08,29.05,30.08,58.13,45.02,87.25,1.28,2.83,2.74,5.56,4.38,8.2,1.03,1.5,2.61,2.54,4.4,2.89,1.11.1,2.59-1.73,3.56-2.97.69-1.12,1.19-2.35,1.48-3.64,25.27-75.78,50.53-151.57,75.79-227.35.32-.94.54-1.94,1.02-3.72M259.61,28.28l-.32-.52c-1.06.32-2.12.63-3.17.98-69.47,23.15-138.94,46.29-208.4,69.44-7.22,2.41-14.47,4.74-21.61,7.4-1.52.57-3.66,2.51-3.57,3.67.13,1.68,1.97,3.29,3.2,4.81.38.47,1.14.63,1.72.94,31,15.97,62,31.98,93.01,48.02,1.7,1.28,4.11.94,5.39-.76.02-.03.05-.06.07-.09,43.88-44.01,87.8-87.97,131.77-131.89.65-.65,1.27-1.34,1.9-2.01"/>
      </g>
    </g>
  </g>
</svg>