<?xml version="1.0" encoding="UTF-8"?>
<svg id="a" data-name="Layer 1" xmlns="http://www.w3.org/2000/svg" xmlns:xlink="http://www.w3.org/1999/xlink" viewBox="0 0 200 200">
  <defs>
    <style>
      .r {
        fill: none;
      }

      .r, .s {
        stroke-width: 0px;
      }

      .t {
        clip-path: url(#k);
      }

      .u {
        clip-path: url(#h);
      }

      .v {
        clip-path: url(#d);
      }

      .s {
        fill: #d82135;
      }
    </style>
    <clipPath id="d">
      <rect class="r" x="16.77" y="3" width="169.48" height="138"/>
    </clipPath>
    <clipPath id="h">
      <rect class="r" y="116.86" width="192.06" height="142.67"/>
    </clipPath>
    <clipPath id="k">
      <rect class="r" x="46.4" y="16.98" width="114.97" height="179.48"/>
    </clipPath>
  </defs>
  <g id="b" data-name="Group 107">
    <g id="c" data-name="Group 105">
      <g class="v">
        <g id="e" data-name="Group 104">
          <path id="f" data-name="Path 191" class="s" d="M52.18,129.21v11.67c-.63.04-1.16.1-1.7.1h-19.41c-7.57.31-13.96-5.58-14.26-13.15-.01-.34-.02-.69,0-1.03-.04-23.36-.05-46.72-.03-70.08-.32-7.57,5.55-13.97,13.12-14.29.36-.02.71-.02,1.07,0,5.05-.08,10.11,0,15.16,0h2.19v-24.94c-.41-7.58,5.4-14.06,12.98-14.47.46-.03.92-.03,1.38,0h77.65c7.57-.38,14.01,5.44,14.4,13.01.02.47.02.95,0,1.43v24.94h4.39c4.25,0,8.51-.04,12.76,0,7.6-.34,14.03,5.55,14.37,13.15.02.44.02.89,0,1.33.03,13.25.03,26.51,0,39.76,0,9.88,0,19.74,0,29.59.53,7.62-5.23,14.23-12.85,14.76-.65.05-1.31.04-1.96,0h-10.35c-3.24.28-6.1-2.13-6.37-5.37-.28-3.24,2.13-6.1,5.37-6.37.34-.03.68-.03,1.02,0h10.72c2.06,0,2.68-.59,2.68-2.62,0-23.24,0-46.47,0-69.69,0-2.13-.67-2.74-3.01-2.72-8.2,0-16.39.1-24.58.1H56.13c-8.13,0-16.26-.08-24.4-.1-2.63,0-3.18.55-3.19,3.09v68.98c0,2.5.51,2.99,3.07,2.99h20.58v-.03ZM142.98,42.22v-24.63c0-2.28-.55-2.83-2.84-2.83H62.91c-2.27,0-2.8.55-2.8,2.87v23.1c0,.47.06.95.09,1.49h82.79Z"/>
          <path id="g" data-name="Path 192" class="s" d="M141.04,72c.01-4.31,3.52-7.79,7.83-7.78,4.31.01,7.79,3.52,7.78,7.83-.01,4.27-3.46,7.74-7.73,7.78-4.31.04-7.84-3.42-7.88-7.74,0-.03,0-.06,0-.09"/>
        </g>
      </g>
    </g>
    <g class="u">
      <g id="i" data-name="Mask Group 1">
        <g id="j" data-name="Group 106">
          <g class="t">
            <g id="l" data-name="Group 3-2">
              <path id="m" data-name="Path 4-2" class="s" d="M49.09,196.46c-1.84-.87-2.92-2.81-2.69-4.83.03-56.6.03-113.21,0-169.81v-.7c-.16-1.69.84-3.27,2.44-3.84,1.54-.59,3.28-.08,4.26,1.25l7.76,8.39c2.38-2.57,4.7-5.08,7.01-7.6,2.83-3.09,4.68-3.09,7.52,0l6.65,7.22c.13.11.27.21.42.29l7.22-7.81c2.48-2.68,4.43-2.7,6.91-.04,2.47,2.66,4.82,5.22,7.32,7.93,2.51-2.74,4.94-5.35,7.33-7.95s4.43-2.62,6.91.07c2.48,2.69,4.81,5.23,7.28,7.93l7.35-8c1.14-1.88,3.6-2.47,5.47-1.33.54.33,1,.79,1.33,1.33l7.35,7.99c2.51-2.74,4.98-5.37,7.4-8.06.97-1.54,2.87-2.22,4.59-1.65,1.75.64,2.41,1.84,2.41,4.39,0,56.66.01,113.32.03,169.99.17,2.01-.9,3.93-2.7,4.83h-1.76c-1-.67-1.95-1.42-2.84-2.23-2.41-2.49-4.72-5.08-7.13-7.68-1.03,1.1-1.91,2.11-2.85,3.06-2.27,2.3-4.57,4.57-6.85,6.85h-2.11c-1-.87-2.07-1.68-2.98-2.63-2.25-2.36-4.43-4.79-6.73-7.29-2.34,2.54-4.56,5.02-6.88,7.41-.98.9-2.01,1.74-3.08,2.52h-1.76c-1.01-.76-1.99-1.58-2.91-2.45-2.33-2.43-4.57-4.94-6.9-7.47-1.94,2.1-3.67,4.08-5.49,5.95-1.38,1.4-2.9,2.66-4.35,3.98h-1.76c-.95-.65-1.86-1.37-2.71-2.15-2.43-2.51-4.78-5.11-7.21-7.76-1.26,1.37-2.36,2.64-3.54,3.84-2.04,2.06-4.14,4.06-6.21,6.09h-2.09l-9.81-9.8c-1.17,1.28-2.35,2.64-3.61,3.93-1.94,1.98-3.95,3.91-5.93,5.86h-2.11ZM153.65,182.78V30.56c-1.31,1.45-2.4,2.67-3.51,3.84-1.13,1.79-3.5,2.33-5.3,1.2-.5-.31-.92-.74-1.23-1.24-1.51-1.65-3-3.29-4.51-4.91-.97-1.05-1.95-2.09-2.98-3.2-2.45,2.67-4.75,5.16-7.03,7.68-2.68,2.93-4.62,2.96-7.28.1-2.38-2.56-4.74-5.13-7.18-7.78-2.58,2.8-5.03,5.49-7.5,8.13-1.17,1.81-3.59,2.33-5.4,1.16-.48-.31-.88-.72-1.18-1.2l-7.58-8.23c-.44.55-.76,1.06-1.15,1.48-2.13,2.33-4.25,4.66-6.42,6.96-1.24,1.7-3.62,2.07-5.32.84-.33-.24-.61-.52-.85-.85-.6-.64-1.19-1.3-1.78-1.94l-5.87-6.34c-2.6,2.83-5.02,5.49-7.48,8.15-1.12,1.8-3.49,2.35-5.29,1.23-.5-.31-.92-.73-1.23-1.23-1.1-1.21-2.19-2.43-3.5-3.84v152.33c1.5-1.65,2.74-3.09,4.08-4.47,1.14-1.37,3.15-1.63,4.61-.6.57.41,1.08.89,1.54,1.42,2.41,2.6,4.81,5.22,7.29,7.92,2.43-2.62,4.72-5.1,7.01-7.59,2.84-3.09,4.69-3.09,7.51-.03,2.32,2.52,4.64,5.03,7.03,7.61,2.51-2.74,4.89-5.3,7.27-7.88,2.49-2.71,4.52-2.69,7.03.05,2.37,2.57,4.74,5.14,7.23,7.86.43-.49.77-.88,1.1-1.26,2.1-2.28,4.2-4.56,6.3-6.83,1.15-1.84,3.58-2.39,5.42-1.24.51.32.94.76,1.26,1.28.92.98,1.81,1.99,2.74,2.97,1.53,1.65,3.07,3.29,4.69,5.05,2.66-2.89,5.16-5.67,7.68-8.39,1.15-1.67,3.44-2.08,5.11-.93.36.25.68.57.93.93,1.19,1.26,2.34,2.55,3.7,4.03"/>
              <path id="n" data-name="Path 5-2" class="s" d="M116.12,67.39c.21,2.11-1.3,4-3.4,4.27-2.05.21-3.88-1.29-4.08-3.34,0-.03,0-.07,0-.1-.6-3.44-2.1-5.01-4.77-4.98-2.25,0-4.18,1.62-4.57,3.84-.48,2.35.93,4.66,3.23,5.32.68.18,1.37.28,2.07.3,6.71.36,11.85,6.1,11.49,12.8-.24,4.46-2.91,8.43-6.95,10.34-1,.32-1.63,1.31-1.48,2.35.03,2.74-1.41,4.36-3.69,4.39s-3.84-1.61-3.84-4.43c.11-1.04-.53-2.01-1.53-2.33-3.98-1.81-6.65-5.66-6.95-10.03-.43-2.11.94-4.16,3.05-4.59.07-.01.14-.03.21-.04,2.11-.22,4,1.31,4.22,3.42,0,.09.01.17.02.26.48,2.99,1.99,4.57,4.5,4.71,2.31.17,4.39-1.43,4.82-3.71.51-2.33-.85-4.67-3.12-5.39-.74-.19-1.49-.3-2.25-.32-5.5-.32-10.11-4.3-11.22-9.7-1.16-5.45,1.56-10.99,6.58-13.4,1.06-.31,1.74-1.34,1.61-2.44-.32-2.05,1.09-3.97,3.14-4.28.2-.03.41-.05.61-.04,2.29,0,3.79,1.65,3.73,4.35-.1,1.1.59,2.12,1.65,2.43,4.05,1.89,6.7,5.88,6.88,10.35"/>
              <path id="o" data-name="Path 6-2" class="s" d="M104.08,138.59h30.52c.58-.02,1.17,0,1.75.03,2.04.18,3.55,1.97,3.37,4.01-.15,1.79-1.58,3.22-3.37,3.37-.58.05-1.17.03-1.75.03h-61.41c-3.39,0-5.09-1.21-5.14-3.64s1.73-3.81,5.15-3.81h30.87"/>
              <path id="p" data-name="Path 7-2" class="s" d="M104.06,154.35h31.08c.98-.03,1.96.18,2.85.6,1.41.74,2.1,2.37,1.65,3.9-.29,1.56-1.58,2.73-3.16,2.87-.58.06-1.17.07-1.76.05h-62.86c-2.07.04-3.77-1.61-3.81-3.68,0-.02,0-.05,0-.07,0-2.04,1.66-3.68,3.7-3.68.05,0,.1,0,.15,0,6.44-.04,12.88,0,19.32,0h12.85"/>
              <path id="q" data-name="Path 8-2" class="s" d="M103.83,130.68c-5.38,0-10.76.04-16.13,0-2.03.17-3.81-1.34-3.97-3.36-.06-.7.09-1.41.42-2.04.64-1.3,1.98-2.1,3.42-2.04h32.61c2.05-.1,3.79,1.49,3.89,3.54.1,2.05-1.49,3.79-3.54,3.89-.13,0-.27,0-.4,0-5.43.04-10.87,0-16.3,0"/>
            </g>
          </g>
        </g>
      </g>
    </g>
  </g>
</svg>