<?xml version="1.0" encoding="UTF-8"?>
<svg id="a" data-name="Layer 1" xmlns="http://www.w3.org/2000/svg" viewBox="0 0 200 200">
  <defs>
    <style>
      .j {
        fill: #303232;
        stroke-width: 0px;
      }
    </style>
  </defs>
  <g id="b" data-name="Group 92">
    <g id="c" data-name="Group 89">
      <g id="d" data-name="Group 90">
        <path id="e" data-name="Path 70" class="j" d="M34.57,138.09v-55.01c0-3.98.97-4.96,4.89-4.96h49.64c3.67,0,4.75,1.08,4.75,4.74v110.62c0,3.59-1.16,4.71-4.82,4.71h-49.64c-3.74,0-4.82-1.09-4.82-4.88v-55.22M44.37,188.42h39.73v-100.59h-39.73v100.59Z"/>
        <path id="f" data-name="Path 71" class="j" d="M165.43,102.6v55.01c0,4.03-1.02,5.02-5.09,5.03h-49.24c-3.89,0-4.96-1.08-4.96-4.96V47.45c0-3.83,1.04-4.88,4.81-4.88h49.84c3.55,0,4.63,1.09,4.63,4.63v55.41M155.7,52.31h-39.76v100.65h39.76V52.31Z"/>
      </g>
    </g>
    <g id="g" data-name="Group 91">
      <path id="h" data-name="Path 79" class="j" d="M120.81,6.9c8,2.8,15.09,7.72,20.52,14.23,1.43,1.43,1.43,3.74,0,5.17-1.43,1.43-3.74,1.43-5.17,0-.13-.13-.26-.28-.37-.43-5.67-6.84-13.47-11.56-22.16-13.41-12.66-3.15-26.05.32-35.6,9.21-12.16,10.33-16.88,26.97-11.94,42.14.61,1.47.29,3.17-.83,4.32-1.45,1.38-3.75,1.33-5.14-.13-.42-.44-.72-.98-.88-1.57-1.59-4.89-2.34-10-2.23-15.14.36-26.22,21.78-47.25,48.01-47.13,5.37.03,10.71.94,15.79,2.7"/>
      <path id="i" data-name="Path 84" class="j" d="M144.4,28.57c-.38,1.1-1.41,1.83-2.57,1.84l-13.93.19c-1.51.07-2.79-1.1-2.86-2.61-.07-1.51,1.1-2.79,2.61-2.86.06,0,.13,0,.19,0l11.81-.12,3.04-12.06c.46-1.44,2-2.24,3.44-1.78,1.32.42,2.12,1.76,1.86,3.11l-3.56,14.11-.06.18"/>
    </g>
  </g>
</svg>