<?xml version="1.0" encoding="UTF-8"?>
<svg id="a" data-name="Layer 1" xmlns="http://www.w3.org/2000/svg" xmlns:xlink="http://www.w3.org/1999/xlink" viewBox="0 0 200 200">
  <defs>
    <style>
      .f {
        fill: none;
      }

      .f, .g {
        stroke-width: 0px;
      }

      .h {
        clip-path: url(#b);
      }

      .g {
        fill: #efefef;
      }
    </style>
    <clipPath id="b">
      <rect class="f" x="2.48" y="2.46" width="195.03" height="195.08"/>
    </clipPath>
  </defs>
  <g class="h">
    <g id="c" data-name="Group 109">
      <path id="d" data-name="Path 193" class="g" d="M99.95,2.44c53.87-.04,97.56,43.6,97.6,97.47.04,53.87-43.6,97.56-97.47,97.6-53.87.04-97.56-43.6-97.6-97.47,0-.05,0-.11,0-.16C2.66,46.13,46.2,2.61,99.95,2.44M22.65,99.98c0,42.72,34.63,77.35,77.35,77.35,42.72,0,77.35-34.63,77.35-77.35,0-42.72-34.63-77.35-77.35-77.35-.05,0-.11,0-.16,0-42.61.2-77.08,34.74-77.19,77.35"/>
      <path id="e" data-name="Path 194" class="g" d="M89.92,79.81v-19.54c-.25-5.56,4.05-10.28,9.61-10.53,5.56-.25,10.28,4.05,10.53,9.61.01.27.01.54,0,.81,0,10.2.1,20.38,0,30.57-.24,1.98.96,3.85,2.85,4.47,5.89,2.76,11.67,5.74,17.46,8.68,5.26,1.93,7.96,7.76,6.03,13.02s-7.76,7.96-13.02,6.03c-.73-.27-1.44-.62-2.09-1.05-8.25-4.11-16.5-8.25-24.75-12.38-4.3-1.81-6.96-6.16-6.6-10.81.1-6.3,0-12.61,0-18.91"/>
    </g>
  </g>
</svg>