<?xml version="1.0" encoding="UTF-8"?>
<svg id="a" data-name="Layer 1" xmlns="http://www.w3.org/2000/svg" xmlns:xlink="http://www.w3.org/1999/xlink" viewBox="0 0 300 300">
  <defs>
    <style>
      .f {
        fill: none;
      }

      .f, .g {
        stroke-width: 0px;
      }

      .h {
        clip-path: url(#c);
      }

      .g {
        fill: #efefef;
      }
    </style>
    <clipPath id="c">
      <rect class="f" x="4.38" y="4.38" width="291.23" height="291.23"/>
    </clipPath>
  </defs>
  <g id="b" data-name="Group 72">
    <g class="h">
      <g id="d" data-name="Group 71">
        <path id="e" data-name="Path 69" class="g" d="M110.63,4.38c5.54,1.95,8.93,7.55,8.08,13.36-.26,15.24-.08,30.49-.08,45.73v3.35c5.08.58,10.03,1.05,14.96,1.72,29.14,3.77,56.78,15.14,80.15,32.97,35.2,26.71,57.28,62.37,70.14,104.15,6.26,20.56,9.92,41.83,10.91,63.3.11,1.02.27,2.04.5,3.04v15.34c-1.39,3.67-4.29,6.56-7.95,7.95h-3.98c-4.48-1.16-7.98-4.67-9.12-9.16-4.95-14.92-11.99-29.06-20.89-42.02-11.91-17.31-27.75-31.54-46.23-41.54-21.06-11.08-44.14-17.82-67.86-19.82-6.75-.69-13.52-1.14-20.67-1.73v3.43c0,16,.04,31.99,0,47.99.4,5.52-3.76,10.33-9.28,10.72-1.1.08-2.21-.02-3.27-.3-2.66-.88-5.02-2.51-6.77-4.7-23.71-28.76-47.35-57.59-70.92-86.5-6.35-7.76-12.76-15.5-19.02-23.33-1.84-2.33-3.3-4.97-4.94-7.46v-4.55c1.32-2.25,2.79-4.41,4.41-6.45C38.6,76.65,68.46,43.48,98.39,10.35c2.38-2.22,4.96-4.22,7.7-5.97h4.54ZM268.6,229.27c-.02-.67-.08-1.34-.18-2.01-4.62-21.58-12.67-42.29-23.83-61.34-15.21-26.44-37.74-47.92-64.87-61.85-21.76-10.86-45.74-16.54-70.06-16.61-5.75.76-11.02-3.29-11.78-9.04-.13-.99-.12-1.99.03-2.98-.03-9.94,0-19.88,0-29.83v-2.92l-.65-.15L28.44,119l68.83,84.11.64-.31v-3.06c0-9.39-.06-18.75,0-28.12-.55-5.77,3.68-10.89,9.45-11.44.79-.08,1.58-.06,2.37.04,3.69.06,7.38.18,11.07.32,27.78.53,55.23,6.13,81,16.53,21.54,8.84,40.81,22.43,56.35,39.77,3.5,3.93,6.78,8.07,10.44,12.43"/>
      </g>
    </g>
  </g>
</svg>