<?xml version="1.0" encoding="UTF-8"?>
<svg id="a" data-name="Layer 1" xmlns="http://www.w3.org/2000/svg" xmlns:xlink="http://www.w3.org/1999/xlink" viewBox="0 0 200 200">
  <defs>
    <style>
      .n {
        fill: none;
      }

      .n, .o {
        stroke-width: 0px;
      }

      .p {
        clip-path: url(#c);
      }

      .o {
        fill: #303232;
      }
    </style>
    <clipPath id="c">
      <rect class="n" y="2.46" width="200" height="194.05"/>
    </clipPath>
  </defs>
  <g id="b" data-name="Group 74">
    <g class="p">
      <g id="d" data-name="Group 73">
        <path id="e" data-name="Path 70" class="o" d="M0,100.05V35.35c0-4.66,1.14-5.84,5.76-5.84h58.38c4.31,0,5.6,1.27,5.6,5.57v130.1c0,4.21-1.39,5.54-5.67,5.54H5.68C1.28,170.72,0,169.43,0,164.98v-64.94M11.53,159.24h46.68V40.95H11.53v118.29Z"/>
        <path id="f" data-name="Path 71" class="o" d="M199.99,100.12v64.7c0,4.73-1.2,5.91-5.98,5.91h-57.91c-4.57,0-5.84-1.26-5.84-5.84V35.27c0-4.51,1.23-5.74,5.66-5.74h58.62c4.18,0,5.43,1.27,5.43,5.43,0,21.73,0,43.47,0,65.2M188.54,41.01h-46.77v118.28h46.77V41.01Z"/>
        <path id="g" data-name="Path 72" class="o" d="M105.93,10.44c-.03,1-.11,2-.24,3-.43,2.55-2.6,4.45-5.19,4.53-2.68.27-5.13-1.55-5.66-4.19-.34-2.15-.38-4.34-.13-6.5.32-2.85,2.81-4.96,5.67-4.81,2.86.06,5.21,2.29,5.43,5.15.1.85.09,1.71.15,2.83"/>
        <path id="h" data-name="Path 73" class="o" d="M105.93,188.85c-.06.89-.05,1.92-.21,2.91-.37,2.65-2.6,4.66-5.28,4.75-2.78.19-5.24-1.77-5.67-4.52-.29-2.16-.29-4.34,0-6.5.41-2.76,2.9-4.72,5.67-4.48,2.77.04,5.07,2.17,5.32,4.93.12.92.12,1.86.17,2.92"/>
        <path id="i" data-name="Path 74" class="o" d="M105.92,69.89c-.05.82-.05,1.85-.2,2.84-.34,2.66-2.58,4.67-5.25,4.73-2.78.23-5.26-1.71-5.7-4.46-.29-2-.33-4.03-.11-6.04.32-3.07,3.08-5.29,6.15-4.97,2.69.28,4.78,2.45,4.99,5.14.1.85.09,1.71.14,2.76"/>
        <path id="j" data-name="Path 75" class="o" d="M105.92,129.38c-.05.82-.05,1.85-.2,2.84-.35,2.66-2.57,4.67-5.25,4.77-2.77.21-5.25-1.73-5.71-4.47-.29-2-.33-4.03-.12-6.04.24-2.94,2.79-5.15,5.74-4.98,2.85.05,5.19,2.28,5.39,5.13.1.85.09,1.71.14,2.76"/>
        <path id="k" data-name="Path 76" class="o" d="M105.86,40.04c0,.7.05,1.4,0,2.1-.07,3.12-2.65,5.59-5.76,5.52-2.96-.06-5.37-2.41-5.51-5.37-.14-1.55-.14-3.11,0-4.66.13-3.11,2.76-5.52,5.87-5.39,2.95.13,5.3,2.51,5.39,5.46.07.78,0,1.55,0,2.33h.02Z"/>
        <path id="l" data-name="Path 77" class="o" d="M105.93,159.21c-.03,1.01-.12,2.02-.26,3.02-.46,2.55-2.66,4.42-5.25,4.46-2.6.24-4.98-1.49-5.55-4.04-.36-2.3-.4-4.64-.1-6.95.43-2.75,2.89-4.72,5.67-4.53,2.76.13,5.02,2.25,5.31,5,.12.92.12,1.86.18,3.03"/>
        <path id="m" data-name="Path 78" class="o" d="M105.93,99.71c-.03.99-.11,1.98-.24,2.97-.47,2.64-2.75,4.57-5.43,4.59-2.61.11-4.91-1.7-5.43-4.25-.34-2.15-.38-4.33-.14-6.5.33-2.85,2.81-4.95,5.67-4.8,2.86.07,5.2,2.29,5.43,5.15.1.85.09,1.71.15,2.86"/>
      </g>
    </g>
  </g>
</svg>