<?xml version="1.0" encoding="UTF-8"?>
<svg id="a" data-name="Layer 1" xmlns="http://www.w3.org/2000/svg" xmlns:xlink="http://www.w3.org/1999/xlink" viewBox="0 0 300 300">
  <defs>
    <style>
      .h {
        fill: none;
      }

      .h, .i {
        stroke-width: 0px;
      }

      .j {
        clip-path: url(#c);
      }

      .i {
        fill: #efefef;
      }
    </style>
    <clipPath id="c">
      <rect class="h" x="4.79" y="4.79" width="290.43" height="290.43"/>
    </clipPath>
  </defs>
  <g id="b" data-name="Group 51">
    <g class="j">
      <g id="d" data-name="Group 50">
        <path id="e" data-name="Path 55" class="i" d="M148.54,4.79c4.83,1.09,9.77,1.83,14.47,3.32,27.75,8.85,46.71,34.5,47.01,63.63.04,3.95.06,7.9,0,11.84.17,6.23-4.74,11.41-10.97,11.58-6.23.17-11.41-4.74-11.58-10.97,0-.2,0-.41,0-.61.44-7.7-.09-15.42-1.59-22.98-5.32-19.42-22.88-32.97-43.02-33.19-23.12-.11-46.25-.11-69.37,0-24.44.22-44.22,19.95-44.49,44.39-.13,51.61-.13,103.21,0,154.81.27,24.34,19.88,44.03,44.21,44.39,23.31.18,46.62.18,69.94,0,24.31-.41,43.91-20.02,44.31-44.33.05-3.95,0-7.9,0-11.84-.17-6.23,4.74-11.41,10.97-11.58,6.23-.17,11.41,4.74,11.58,10.97,0,.2,0,.41,0,.61,1.01,11.92-.51,23.92-4.46,35.21-8.82,23.58-30.13,40.21-55.14,43.05-.63.13-1.25.3-1.85.51h-80.67c-.61-.22-1.23-.39-1.86-.51-26.86-3.24-49.21-22.17-56.82-48.13-1.21-4.19-1.89-8.56-2.81-12.82V66.27c.21-.61.38-1.24.51-1.88,2.86-25.73,20.38-47.46,44.93-55.7,5.26-1.64,10.62-2.95,16.05-3.92h80.66Z"/>
        <path id="f" data-name="Path 56" class="i" d="M295.21,154.27c-1.01,6.22-3.61,12.08-7.54,17.01-3.32,3.72-6.89,7.19-10.4,10.73-5.97,6-11.93,12-17.98,17.91-3.27,3.47-8.41,4.44-12.72,2.4-4.25-1.9-6.89-6.22-6.64-10.86.24-3.12,1.68-6.03,4.02-8.12,8.14-8.07,16.26-16.17,24.36-24.29,4.93-3.83,5.82-10.92,1.99-15.85-.61-.78-1.31-1.48-2.1-2.08-8.24-8.12-16.52-16.17-24.74-24.32-3.59-3.29-4.61-8.55-2.49-12.94,1.81-4.32,6.24-6.93,10.9-6.41,2.67.38,5.18,1.51,7.23,3.26,8.9,8.36,17.57,16.99,26.21,25.62,5.08,4.97,8.39,11.48,9.41,18.51.11.35.26.68.46.98l.02,8.45Z"/>
        <path id="g" data-name="Path 57" class="i" d="M178.37,160.47h-60.32c-6.22.32-11.52-4.45-11.85-10.67-.32-6.22,4.45-11.52,10.67-11.85.25-.01.5-.02.75-.01,5.35-.06,10.71,0,16.06,0h104.86c6.22-.48,11.66,4.17,12.15,10.39.48,6.22-4.17,11.66-10.39,12.15-.54.04-1.08.05-1.61.01h-60.32"/>
      </g>
    </g>
  </g>
</svg>