<?xml version="1.0" standalone="no"?>
<!DOCTYPE svg PUBLIC "-//W3C//DTD SVG 20010904//EN"
 "http://www.w3.org/TR/2001/REC-SVG-20010904/DTD/svg10.dtd">
<svg version="1.0" xmlns="http://www.w3.org/2000/svg"
 width="128.000000pt" height="128.000000pt" viewBox="0 0 128.000000 128.000000"
 preserveAspectRatio="xMidYMid meet">

<g transform="translate(0.000000,128.000000) scale(0.100000,-0.100000)"
fill="#000000" stroke="none">
<path d="M505 1266 c-135 -31 -278 -120 -360 -223 -259 -328 -153 -799 220
-977 99 -47 164 -61 290 -60 93 0 122 4 183 26 191 69 340 213 403 393 123
350 -77 734 -431 831 -81 21 -233 27 -305 10z m270 -90 c199 -53 348 -201 400
-397 18 -68 19 -208 1 -274 -53 -199 -201 -348 -397 -400 -68 -18 -208 -19
-274 -1 -199 53 -348 201 -400 397 -18 68 -19 208 -1 274 52 196 200 347 393
400 63 17 215 18 278 1z"/>
<path d="M607 1004 c-4 -4 -7 -78 -7 -165 l0 -159 -162 -2 -163 -3 0 -35 0
-35 162 -3 163 -2 2 -163 3 -162 35 0 35 0 3 162 2 163 163 2 162 3 0 35 0 35
-162 3 -163 2 -2 163 -3 162 -30 3 c-17 2 -34 0 -38 -4z"/>
</g>
</svg>
